<svg xmlns="http://www.w3.org/2000/svg" xmlns:xlink="http://www.w3.org/1999/xlink" width="100" height="100" viewBox="0 0 384 384">
  <defs>
    <clipPath id="06eab27a14">
      <path fill="#0c0a09" d="M 183 4.59375 L 202 4.59375 L 202 376 L 183 376 Z M 183 4.59375 " />
    </clipPath>
    <clipPath id="8db0d95993">
      <path fill="#0c0a09" d="M 5.90625 181 L 378.601562 181 L 378.601562 200 L 5.90625 200 Z M 5.90625 181 " />
    </clipPath>
  </defs>
  <g>
    <g clip-rule="nonzero">
      <path fill="#0c0a09" d="M 201.234375 4.96875 L 183.242188 4.96875 L 183.242188 375.15625 L 201.234375 375.15625 Z M 201.234375 4.96875 " />
      <path fill="#0c0a09" d="M 201.234375 4.96875 L 183.242188 4.96875 L 183.242188 375.15625 L 201.234375 375.15625 Z M 201.234375 4.96875 " />
    </g>
    <g clip-rule="nonzero">
      <path fill="#0c0a09" d="M 378.601562 181.117188 L 5.90625 181.117188 L 5.90625 199.054688 L 378.601562 199.054688 Z M 378.601562 181.117188 " />
      <path fill="#0c0a09" d="M 378.601562 181.117188 L 5.90625 181.117188 L 5.90625 199.054688 L 378.601562 199.054688 Z M 378.601562 181.117188 " />
    </g>
    <path fill="#0c0a09" d="M 66.804688 52.867188 L 54.070312 65.523438 L 317.570312 327.28125 L 330.359375 314.617188 Z M 66.804688 52.867188 " />
    <path fill="#0c0a09" d="M 66.804688 52.867188 L 54.070312 65.523438 L 317.570312 327.28125 L 330.359375 314.617188 Z M 66.804688 52.867188 " />
    <path fill="#0c0a09" d="M 317.570312 52.867188 L 54.070312 314.625 L 66.804688 327.234375 L 330.359375 65.515625 Z M 317.570312 52.867188 " />
    <path fill="#0c0a09" d="M 317.570312 52.867188 L 54.070312 314.625 L 66.804688 327.234375 L 330.359375 65.515625 Z M 317.570312 52.867188 " />
    <path fill="#0c0a09" d="M 23.085938 112.023438 L 16.28125 128.59375 L 361.445312 268.25 L 368.25 251.710938 Z M 23.085938 112.023438 " />
    <path fill="#0c0a09" d="M 23.085938 112.023438 L 16.28125 128.59375 L 361.445312 268.25 L 368.25 251.710938 Z M 23.085938 112.023438 " />
    <path fill="#0c0a09" d="M 254.257812 15.367188 L 113.632812 358.195312 L 130.328125 364.945312 L 270.953125 22.109375 Z M 254.257812 15.367188 " />
    <path fill="#0c0a09" d="M 254.257812 15.367188 L 113.632812 358.195312 L 130.328125 364.945312 L 270.953125 22.109375 Z M 254.257812 15.367188 " />
    <path fill="#0c0a09" d="M 361.875 112.632812 L 16.125 250.84375 L 22.851562 267.46875 L 368.617188 129.257812 Z M 361.875 112.632812 " />
    <path fill="#0c0a09" d="M 361.875 112.632812 L 16.125 250.84375 L 22.851562 267.46875 L 368.617188 129.257812 Z M 361.875 112.632812 " />
    <path fill="#0c0a09" d="M 130.90625 15.148438 L 114.210938 21.820312 L 253.304688 365.25 L 270 358.585938 Z M 130.90625 15.148438 " />
    <path fill="#0c0a09" d="M 130.90625 15.148438 L 114.210938 21.820312 L 253.304688 365.25 L 270 358.585938 Z M 130.90625 15.148438 " />
  </g>
</svg>