<svg xmlns="http://www.w3.org/2000/svg" xmlns:xlink="http://www.w3.org/1999/xlink" width="500" zoomAndPan="magnify" viewBox="0 0 375 374.999991" height="500" preserveAspectRatio="xMidYMid meet" version="1.0"><defs><clipPath id="8375259d4d"><path d="M 187.5 0 C 83.945312 0 0 83.945312 0 187.5 C 0 291.054688 83.945312 375 187.5 375 C 291.054688 375 375 291.054688 375 187.5 C 375 83.945312 291.054688 0 187.5 0 Z M 187.5 0 " clip-rule="nonzero"/></clipPath><clipPath id="8d8d73e2af"><path d="M 0 0 L 375 0 L 375 375 L 0 375 Z M 0 0 " clip-rule="nonzero"/></clipPath><clipPath id="1003efeac7"><path d="M 187.5 0 C 83.945312 0 0 83.945312 0 187.5 C 0 291.054688 83.945312 375 187.5 375 C 291.054688 375 375 291.054688 375 187.5 C 375 83.945312 291.054688 0 187.5 0 Z M 187.5 0 " clip-rule="nonzero"/></clipPath><clipPath id="e4f290cd88"><rect x="0" width="375" y="0" height="375"/></clipPath><clipPath id="500496d602"><path d="M 181 52.191406 L 194.71875 52.191406 L 194.71875 320 L 181 320 Z M 181 52.191406 " clip-rule="nonzero"/></clipPath><clipPath id="0c05ae3875"><path d="M 53.140625 179 L 322.222656 179 L 322.222656 193 L 53.140625 193 Z M 53.140625 179 " clip-rule="nonzero"/></clipPath></defs><g clip-path="url(#8375259d4d)"><g transform="matrix(1, 0, 0, 1, 0, 0)"><g clip-path="url(#e4f290cd88)"><g clip-path="url(#8d8d73e2af)"><g clip-path="url(#1003efeac7)"><rect x="-82.5" width="540" fill="#fafafa" height="539.999987" y="-82.499998" fill-opacity="1"/></g></g></g></g></g><g clip-path="url(#500496d602)"><path fill="#0a0a0a" d="M 194.164062 52.464844 L 181.175781 52.464844 L 181.175781 319.734375 L 194.164062 319.734375 Z M 194.164062 52.464844 " fill-opacity="1" fill-rule="nonzero"/><path fill="#0a0a0a" d="M 194.164062 52.464844 L 181.175781 52.464844 L 181.175781 319.734375 L 194.164062 319.734375 Z M 194.164062 52.464844 " fill-opacity="0.2" fill-rule="nonzero"/></g><g clip-path="url(#0c05ae3875)"><path fill="#0a0a0a" d="M 322.222656 179.640625 L 53.140625 179.640625 L 53.140625 192.589844 L 322.222656 192.589844 Z M 322.222656 179.640625 " fill-opacity="1" fill-rule="nonzero"/><path fill="#0a0a0a" d="M 322.222656 179.640625 L 53.140625 179.640625 L 53.140625 192.589844 L 322.222656 192.589844 Z M 322.222656 179.640625 " fill-opacity="0.2" fill-rule="nonzero"/></g><path fill="#0a0a0a" d="M 97.109375 87.046875 L 87.914062 96.183594 L 278.15625 285.167969 L 287.390625 276.023438 Z M 97.109375 87.046875 " fill-opacity="1" fill-rule="nonzero"/><path fill="#0a0a0a" d="M 97.109375 87.046875 L 87.914062 96.183594 L 278.15625 285.167969 L 287.390625 276.023438 Z M 97.109375 87.046875 " fill-opacity="0.2" fill-rule="nonzero"/><path fill="#0a0a0a" d="M 278.15625 87.046875 L 87.914062 276.03125 L 97.109375 285.132812 L 287.390625 96.175781 Z M 278.15625 87.046875 " fill-opacity="1" fill-rule="nonzero"/><path fill="#0a0a0a" d="M 278.15625 87.046875 L 87.914062 276.03125 L 97.109375 285.132812 L 287.390625 96.175781 Z M 278.15625 87.046875 " fill-opacity="0.2" fill-rule="nonzero"/><path fill="#0a0a0a" d="M 65.542969 129.753906 L 60.632812 141.71875 L 309.835938 242.550781 L 314.746094 230.609375 Z M 65.542969 129.753906 " fill-opacity="1" fill-rule="nonzero"/><path fill="#0a0a0a" d="M 65.542969 129.753906 L 60.632812 141.71875 L 309.835938 242.550781 L 314.746094 230.609375 Z M 65.542969 129.753906 " fill-opacity="0.2" fill-rule="nonzero"/><path fill="#0a0a0a" d="M 232.445312 59.972656 L 130.917969 307.488281 L 142.972656 312.363281 L 244.5 64.839844 Z M 232.445312 59.972656 " fill-opacity="1" fill-rule="nonzero"/><path fill="#0a0a0a" d="M 232.445312 59.972656 L 130.917969 307.488281 L 142.972656 312.363281 L 244.5 64.839844 Z M 232.445312 59.972656 " fill-opacity="0.2" fill-rule="nonzero"/><path fill="#0a0a0a" d="M 310.144531 130.195312 L 60.519531 229.980469 L 65.375 241.984375 L 315.011719 142.199219 Z M 310.144531 130.195312 " fill-opacity="1" fill-rule="nonzero"/><path fill="#0a0a0a" d="M 310.144531 130.195312 L 60.519531 229.980469 L 65.375 241.984375 L 315.011719 142.199219 Z M 310.144531 130.195312 " fill-opacity="0.2" fill-rule="nonzero"/><path fill="#0a0a0a" d="M 143.390625 59.8125 L 131.335938 64.628906 L 231.757812 312.582031 L 243.8125 307.769531 Z M 143.390625 59.8125 " fill-opacity="1" fill-rule="nonzero"/><path fill="#0a0a0a" d="M 143.390625 59.8125 L 131.335938 64.628906 L 231.757812 312.582031 L 243.8125 307.769531 Z M 143.390625 59.8125 " fill-opacity="0.2" fill-rule="nonzero"/></svg>